<?xml version="1.0" encoding="UTF-8" standalone="no"?>
<svg
   width="135.46666mm"
   height="135.46666mm"
   viewBox="0 0 135.46666 135.46666"
   version="1.1"
   id="svg1"
   sodipodi:docname="favicon.svg"
   inkscape:version="1.4 (e7c3feb100, 2024-10-09)"
   xmlns:inkscape="http://www.inkscape.org/namespaces/inkscape"
   xmlns:sodipodi="http://sodipodi.sourceforge.net/DTD/sodipodi-0.dtd"
   xmlns="http://www.w3.org/2000/svg"
   xmlns:svg="http://www.w3.org/2000/svg">
  <defs
     id="defs1" />
  <sodipodi:namedview
     id="namedview1"
     pagecolor="#ffffff"
     bordercolor="#000000"
     borderopacity="0.25"
     inkscape:showpageshadow="2"
     inkscape:pageopacity="0.0"
     inkscape:pagecheckerboard="0"
     inkscape:deskcolor="#d1d1d1"
     inkscape:document-units="mm"
     inkscape:zoom="1.2823216"
     inkscape:cx="620.7491"
     inkscape:cy="238.23976"
     inkscape:window-width="3796"
     inkscape:window-height="2043"
     inkscape:window-x="0"
     inkscape:window-y="0"
     inkscape:window-maximized="1"
     inkscape:current-layer="svg1" />
  <style
     id="style1">
        #rect1 {
        fill: #27272a;
        }
        @media (prefers-color-scheme: dark) {
        #rect1 {
        fill: #e4e4e7;
        }
        }
    </style>
  <g
     id="layer1">
    <path
       id="rect1"
       style="fill-opacity:1;stroke:none;stroke-width:0.264583"
       d="M 25.000024,0 C 11.150038,0 0,11.150038 0,25.000024 v 85.466616 c 0,13.84999 11.150038,25.00003 25.000024,25.00003 h 85.466616 c 13.84999,0 25.00003,-11.15004 25.00003,-25.00003 V 25.000024 C 135.46667,11.150038 124.31663,0 110.46664,0 Z m -6.218225,43.23457 h 9.640239 v 26.408724 c 0,4.653892 0.953319,8.122008 2.859257,10.40505 1.905937,2.283041 4.631865,3.424597 8.177795,3.424597 3.501606,0 6.205195,-1.141556 8.111133,-3.424597 1.905938,-2.283042 2.85874,-5.751158 2.85874,-10.40505 V 43.23457 h 9.640755 v 28.713493 c 0,4.127037 -0.819805,7.727566 -2.459798,10.800891 -1.639993,3.073325 -4.011605,5.422127 -7.114294,7.046599 -3.102689,1.624471 -6.781419,2.436543 -11.036536,2.436543 -4.29944,0 -8.000509,-0.812072 -11.103198,-2.436543 C 25.253203,88.171081 22.88159,85.822279 21.241597,82.748954 19.601605,79.675629 18.781799,76.0751 18.781799,71.948063 Z m 51.096623,0 h 10.97039 L 93.880058,78.072754 106.37955,43.23457 h 10.30532 L 97.736153,91.441964 h -8.177795 z" />
  </g>
  <rect
     style="fill:#27272a;fill-opacity:1;stroke:none;stroke-width:1.34938"
     id="rect2"
     width="135.46666"
     height="135.46666"
     x="135.46667"
     y="2.2270508e-06"
     ry="25" />
  <text
     xml:space="preserve"
     style="font-style:normal;font-variant:normal;font-weight:bold;font-stretch:normal;font-size:70.5556px;font-family:'HarmonyOS Sans';-inkscape-font-specification:'HarmonyOS Sans, Bold';font-variant-ligatures:normal;font-variant-caps:normal;font-variant-numeric:normal;font-variant-east-asian:normal;text-align:start;letter-spacing:4.79954px;writing-mode:lr-tb;direction:ltr;text-anchor:start;fill:#f4f4f5;fill-opacity:1;stroke:none;stroke-width:1.34938"
     x="149.82382"
     y="90.734444"
     id="text2"><tspan
       sodipodi:role="line"
       id="tspan2"
       style="font-style:normal;font-variant:normal;font-weight:bold;font-stretch:normal;font-size:70.5556px;font-family:'HarmonyOS Sans';-inkscape-font-specification:'HarmonyOS Sans, Bold';font-variant-ligatures:normal;font-variant-caps:normal;font-variant-numeric:normal;font-variant-east-asian:normal;fill:#f4f4f5;fill-opacity:1;stroke-width:1.34938"
       x="149.82382"
       y="90.734444">UP</tspan></text>
</svg>
