<?xml version="1.0" encoding="UTF-8" standalone="no"?>

<svg
    width="135.46666mm"
    height="135.46666mm"
    viewBox="0 0 135.46666 135.46666"
    version="1.1"
    id="svg1"
    xmlns="http://www.w3.org/2000/svg"
    xmlns:svg="http://www.w3.org/2000/svg">
    <style>
        #rect1 {
        fill: #27272a;
        }
        @media (prefers-color-scheme: dark) {
        #rect1 {
        fill: #e4e4e7;
        }
        }
    </style>
    <g
        id="layer1">
        <path
            id="rect1"
            style="fill-opacity:1;stroke:none;stroke-width:0.264583"
            d="M 25.000024,0 C 11.150038,0 0,11.150038 0,25.000024 v 85.466616 c 0,13.84999 11.150038,25.00003 25.000024,25.00003 h 85.466616 c 13.84999,0 25.00003,-11.15004 25.00003,-25.00003 V 25.000024 C 135.46667,11.150038 124.31663,0 110.46664,0 Z m -6.218225,43.23457 h 9.640239 v 26.408724 c 0,4.653892 0.953319,8.122008 2.859257,10.40505 1.905937,2.283041 4.631865,3.424597 8.177795,3.424597 3.501606,0 6.205195,-1.141556 8.111133,-3.424597 1.905938,-2.283042 2.85874,-5.751158 2.85874,-10.40505 V 43.23457 h 9.640755 v 28.713493 c 0,4.127037 -0.819805,7.727566 -2.459798,10.800891 -1.639993,3.073325 -4.011605,5.422127 -7.114294,7.046599 -3.102689,1.624471 -6.781419,2.436543 -11.036536,2.436543 -4.29944,0 -8.000509,-0.812072 -11.103198,-2.436543 C 25.253203,88.171081 22.88159,85.822279 21.241597,82.748954 19.601605,79.675629 18.781799,76.0751 18.781799,71.948063 Z m 51.096623,0 h 10.97039 L 93.880058,78.072754 106.37955,43.23457 h 10.30532 L 97.736153,91.441964 h -8.177795 z" />
    </g>
</svg>