<svg
    version="1.1"
    width="1053.3333"
    height="505.33334"
    viewBox="0 0 1053.3333 505.33334"
    xmlns="http://www.w3.org/2000/svg"
>
    <defs id="defs1" />
    <g id="g1">
        <path
            style="fill:#e4e4e7;fill-opacity:1"
            d="m 267.59153,479.22368 c -8.36426,-4.06133 -15.64891,-11.59647 -19.55021,-20.22246 -2.54639,-5.63022 -3.01413,-8.94687 -3.00858,-21.33334 0.008,-16.94696 2.66904,-25.75455 10.57262,-34.98811 7.21481,-8.42888 16.33589,-12.34522 28.7518,-12.34522 15.74089,0 25.07977,5.18782 31.24677,17.35781 3.26157,6.4364 5.9592,19.21206 5.97753,28.30885 l 0.0101,5.00001 h -30.17559 -30.17555 l 0.745,5.55442 c 0.92758,6.91565 6.79672,15.38451 12.91864,18.64096 9.73279,5.17718 23.57139,2.77876 32.78823,-5.68264 2.73277,-2.50879 2.82816,-2.49451 7.61807,1.13999 2.66786,2.02433 4.87252,4.08456 4.89924,4.5783 0.11447,2.11471 -7.37874,9.43567 -13.07362,12.7731 -5.40461,3.16731 -7.8393,3.67067 -19.52614,4.03694 -11.91143,0.37331 -14.07076,0.0693 -20.01831,-2.81861 z m 36.66667,-54.93196 c 0,-4.87539 -3.11293,-11.45595 -7.20457,-15.23006 -2.79092,-2.57433 -5.3444,-3.38725 -11.96364,-3.80873 -7.98488,-0.50844 -8.67548,-0.30749 -13.49956,3.92811 -4.70347,4.12971 -9.90071,12.89819 -9.96961,16.82017 -0.0222,1.26511 5.11065,1.66667 21.30404,1.66667 H 304.2582 Z M 442.39863,478.279 c -2.68009,-2.35315 -5.333,-6.29042 -6.10062,-9.05414 -0.74706,-2.68967 -1.36163,-18.24031 -1.36572,-34.55698 l -0.007,-29.66667 h -8 -8 v -6.66666 -6.66667 h 8 8 v -10.66667 -10.66666 h 8.66667 8.66667 v 10.66666 10.66667 h 7.99999 8 v 6.66667 6.66666 h -8 -7.99999 v 28.75433 c 0,17.27129 0.5512,29.78425 1.38024,31.33333 1.08305,2.02369 2.82064,2.57901 8.06968,2.57901 h 6.68943 l -0.40301,7 -0.40301,7 -10.22528,0.38748 c -9.79781,0.37127 -10.42352,0.2134 -14.96761,-3.77636 z m 57.85955,2.56431 c -5.88367,-2.33382 -11.97658,-9.44444 -14.03653,-16.38106 -1.49872,-5.04674 -1.96347,-14.44429 -1.96347,-39.70304 v -33.09133 h 8 8 l 0.0318,29.66667 c 0.0352,32.86862 0.87099,38.93209 5.97274,43.33333 6.98142,6.02282 24.20403,3.1333 30.02171,-5.03687 2.456,-3.44915 2.64041,-5.95183 2.64041,-35.83562 v -32.12751 h 7.99999 8 v 44.66667 44.66667 h -8 c -7.76897,0 -7.99999,-0.10223 -7.99999,-3.53999 0,-3.31458 -0.15168,-3.40272 -2.38214,-1.38418 -4.71069,4.26312 -12.00991,6.25904 -22.57504,6.17298 -5.70688,-0.0465 -11.87616,-0.6795 -13.70949,-1.40672 z m 152.66666,-1.61963 c -8.36427,-4.06133 -15.64892,-11.59647 -19.55022,-20.22246 -2.54638,-5.63022 -3.01412,-8.94687 -3.00858,-21.33334 0.008,-16.94696 2.66904,-25.75455 10.57262,-34.98811 7.21482,-8.42888 16.3359,-12.34522 28.7518,-12.34522 15.74089,0 25.07977,5.18782 31.24678,17.35781 3.26157,6.4364 5.95919,19.21206 5.97752,28.30885 l 0.0101,5.00001 h -30.17558 -30.17556 l 0.745,5.55442 c 0.92759,6.91565 6.79672,15.38451 12.91865,18.64096 9.73278,5.17718 23.57139,2.77876 32.78822,-5.68264 2.73278,-2.50879 2.82816,-2.49451 7.61808,1.13999 2.66785,2.02433 4.87251,4.08456 4.89924,4.5783 0.11446,2.11471 -7.37875,9.43567 -13.07363,12.7731 -5.40461,3.16731 -7.83929,3.67067 -19.52614,4.03694 -11.91142,0.37331 -14.07076,0.0693 -20.0183,-2.81861 z m 36.66666,-54.93196 c 0,-4.87539 -3.11293,-11.45595 -7.20457,-15.23006 -2.79092,-2.57433 -5.3444,-3.38725 -11.96363,-3.80873 -7.98488,-0.50844 -8.67548,-0.30749 -13.49957,3.92811 -4.70347,4.12971 -9.9007,12.89819 -9.96961,16.82017 -0.0222,1.26511 5.11065,1.66667 21.30405,1.66667 h 21.33333 z m 48.83666,56.08527 c -10.38664,-3.7024 -17.96639,-12.36646 -20.1587,-23.04244 l -0.88984,-4.33333 8.43927,0.0136 8.43927,0.0136 2.12778,5.07031 c 2.73525,6.51784 8.93038,9.57094 19.40706,9.56425 12.91494,-0.008 20.5052,-6.9939 16.69219,-15.36254 -1.94152,-4.26116 -6.87648,-6.61048 -22.30849,-10.62005 -13.63801,-3.54345 -19.16301,-6.24077 -24.56803,-11.99415 -2.65146,-2.82235 -3.36362,-5.17309 -3.76163,-12.41654 -0.45545,-8.28888 -0.18741,-9.35199 3.70622,-14.6999 6.25816,-8.59559 14.9614,-12.20562 29.46582,-12.22215 9.83992,-0.0112 12.43217,0.4964 18.65841,3.65364 8.1499,4.13272 13.84886,11.38585 15.19067,19.33334 l 0.84417,5 h -8.43477 c -8.11612,0 -8.49086,-0.14862 -9.91969,-3.93402 -2.2357,-5.92304 -8.9501,-9.3884 -18.20227,-9.39433 -6.81268,-0.004 -8.24909,0.47487 -11.66667,3.89245 -7.19286,7.19286 -4.08334,13.0112 9.00307,16.84602 26.26453,7.69651 30.71838,9.90662 36.18311,17.95494 2.69205,3.96478 3.07743,5.90932 2.66533,13.44874 -0.59635,10.91069 -4.46061,16.64236 -14.64012,21.71502 -6.00228,2.99106 -8.63542,3.46308 -19.03728,3.41266 -6.72711,-0.0326 -14.35751,-0.87338 -17.23488,-1.89904 z m -563.9123,-43.04244 c -8.61124,-24.01667 -15.64199,-44.1453 -15.62389,-44.73029 0.0181,-0.585 3.7352,-0.885 8.26023,-0.66667 l 8.22733,0.39696 10.83003,32.50487 10.83003,32.50488 6.37226,-19.83821 c 3.50473,-10.91101 8.25651,-25.68821 10.5595,-32.83821 l 4.18726,-13 h 8.52578 c 6.2376,0 8.37187,0.44731 7.9523,1.66667 -0.31542,0.91666 -7.41772,21.01666 -15.78289,44.66667 l -15.20941,43 h -6.73587 -6.73587 z m 163.07567,-1 v -44.66667 h 8 8 v 4.91612 4.91612 l 3.66666,-3.51205 c 2.01667,-1.93164 5.8974,-4.44389 8.62384,-5.58279 6.17309,-2.57865 22.23533,-2.72246 28.14791,-0.25203 5.54956,2.31875 11.07101,8.86674 12.83624,15.2227 0.78225,2.81661 1.38035,19.78977 1.38457,39.29193 l 0.007,34.33334 h -7.93586 -7.93586 l -0.39747,-34.11146 -0.39748,-34.11145 -4.35437,-3.88855 c -3.58802,-3.20418 -5.53561,-3.88855 -11.06621,-3.88855 -8.02012,0 -12.74022,2.2199 -18.38149,8.64496 l -4.19792,4.78117 v 31.28694 31.28694 h -8 -8 z m 238.66665,0 v -44.66667 h 7.99999 8 l 0.0424,4.33333 c 0.0364,3.72254 0.27467,4.02824 1.69024,2.16878 3.67665,-4.82954 10.79306,-7.82538 18.60069,-7.83046 l 7.66666,-0.005 v 7.33333 7.33333 h -7.39954 c -8.95156,0 -14.08454,2.43846 -17.80506,8.45839 -2.63185,4.25841 -2.7954,6.36652 -2.7954,36.03233 v 31.50929 h -8 -7.99999 z m 258.99998,-6.88304 c -1.24082,-0.50068 -1.66667,-6.41481 -1.66667,-23.14616 v -22.47364 l 15.02035,0.0898 c 12.73376,0.0761 16.07824,-0.3653 21.9694,-2.89961 8.40221,-3.61453 16.71146,-12.25626 21.1893,-22.03716 l 3.27347,-7.1502 -45.55308,-115.75 c -25.0542,-63.6625 -45.85347,-116.80947 -46.2206,-118.10437 -0.62844,-2.2165 1.54696,-2.33362 37.14844,-2 l 37.81597,0.35437 25.32653,85.49155 25.32653,85.49155 25.11837,-85.4803 c 13.8151,-47.01416 25.28307,-85.64501 25.48439,-85.84633 0.20132,-0.20131 16.87263,-0.20638 37.04744,-0.0113 l 36.6814,0.35478 -47.5717,121.33334 c -26.1645,66.73333 -49.69602,125.88445 -52.29237,131.44693 -15.95041,34.17262 -36.68956,53.60174 -63.21393,59.22091 -8.84983,1.87483 -50.88429,2.7294 -54.88324,1.11579 z M 92.234173,345.63818 C 77.220128,343.29643 58.629106,337.21487 47.368618,330.96161 41.87556,327.91116 33.964106,321.62054 27.443342,315.11845 18.822026,306.52183 15.520382,302.03583 11.165314,293.00121 0.69048185,271.27112 1.1620101,277.36029 0.60805267,156.66788 L 0.1138812,49.001195 H 33.519383 66.924885 l 0.06788,90.333345 c 0.0656,87.29313 0.867448,113.11606 3.819934,123.0183 2.439098,8.1804 9.898346,19.06131 16.460182,24.0107 10.840549,8.17669 17.761289,9.97389 38.318659,9.9507 15.66078,-0.0177 18.99576,-0.41978 25.66221,-3.09414 16.43183,-6.59189 27.47262,-21.53657 30.28483,-40.99312 0.79021,-5.46713 1.34423,-48.74418 1.35988,-106.22577 l 0.0264,-97.000015 h 34 34 l -0.0418,87.000015 c -0.0587,122.26365 -1.0956,135.6286 -12.27935,158.27836 -13.84217,28.03368 -43.44628,46.28204 -84.30136,51.96446 -13.76717,1.91483 -48.0526,1.58017 -62.068201,-0.60585 z M 293.59153,229.00121 V 115.66787 h 34 34 v 16.27595 16.27595 l 8.33333,-12.22793 c 7.43891,-10.9155 9.27974,-12.73149 17.15104,-16.91953 13.15261,-6.99805 24.021,-9.1904 45.18229,-9.1141 29.03507,0.1047 45.30952,5.73755 60.76242,21.03085 8.47525,8.38772 13.2587,16.8404 17.36143,30.67882 2.14213,7.22534 2.41927,16.35985 2.862,94.33333 l 0.49021,86.33334 h -33.4047 -33.4047 l -0.0581,-65.66667 c -0.0656,-74.08016 -0.86272,-89.11404 -5.26819,-99.35483 -6.10232,-14.18523 -18.95706,-21.11278 -37.17151,-20.0321 -11.7075,0.69462 -16.74519,2.89661 -24.19938,10.57765 -6.25775,6.44818 -11.19334,16.13431 -14.96792,29.37461 -2.62224,9.1982 -2.81556,13.71524 -3.31404,77.43467 l -0.52937,67.66667 h -33.91239 -33.9124 z m 266.66665,0 V 115.66787 h 33.99999 34 v 113.33334 113.33334 h -34 -33.99999 z m 123.99999,22.66667 v -90.66667 h -12 -12 v -22 -22 h 11.80416 11.80416 l 0.77772,-19.000005 c 1.1664,-28.49544 4.87874,-39.53466 17.87805,-53.16308 8.26573,-8.66576 20.89565,-15.49456 35.7359,-19.32184 7.20859,-1.85909 14.6452,-2.41935 32.66667,-2.46107 12.83333,-0.0297 24.98333,0.40742 27,0.97139 l 3.66666,1.0254 v 23.08725 23.08726 l -8.2679,-1.13071 c -14.14048,-1.93383 -28.56554,2.09054 -35.02969,9.77274 -4.49379,5.34058 -6.01958,11.78614 -6.0283,25.465995 l -0.007,11.66667 h 22.66667 22.66666 v 22 22 H 774.92527 752.2586 v 90.66667 90.66667 h -34 -33.99999 z M 581.35225,95.220855 c -12.15005,-3.42666 -20.01723,-12.17749 -22.44187,-24.96261 -4.4101,-23.25436 9.89602,-41.38478 32.94178,-41.74775 11.88814,-0.18724 20.34564,2.37527 27.19798,8.24062 7.74997,6.63369 10.4828,13.30319 10.4828,25.58342 0,15.61821 -5.83149,25.3641 -18.58662,31.0629 -7.41753,3.31404 -21.28016,4.16818 -29.59407,1.82342 z"
            id="path1"
        />
    </g>
</svg>